<?xml version="1.0" standalone="no"?>
<!DOCTYPE svg PUBLIC "-//W3C//DTD SVG 1.1//EN" "http://www.w3.org/Graphics/SVG/1.1/DTD/svg11.dtd" >
<svg>
<metadata>
Created by FontForge 20120731 at Tue Jul 30 14:19:10 2019
 By www-data
Copyright (c) 1990 Image Club Graphics Inc. All rights reserved.
</metadata>
<defs>
<font id="PacificaCondensed" horiz-adv-x="913" >
  <font-face 
    font-family="PacificaCondensed"
    font-weight="400"
    font-stretch="normal"
    units-per-em="2048"
    panose-1="2 11 5 0 0 0 0 0 0 0"
    ascent="1638"
    descent="-410"
    x-height="1638"
    cap-height="1638"
    bbox="-4 -524 1573 2028"
    underline-thickness="16"
    underline-position="-102"
    unicode-range="U+0020-25CA"
  />
<missing-glyph horiz-adv-x="1536" 
d="M256 0v1280h1024v-1280h-1024zM1247 33v1214h-958v-1214h958z" />
    <glyph glyph-name=".notdef" horiz-adv-x="1536" 
d="M256 0v1280h1024v-1280h-1024zM1247 33v1214h-958v-1214h958z" />
    <glyph glyph-name=".null" horiz-adv-x="0" 
 />
    <glyph glyph-name="nonmarkingreturn" horiz-adv-x="0" 
 />
    <glyph glyph-name="space" unicode=" " horiz-adv-x="635" 
 />
    <glyph glyph-name="exclam" unicode="!" horiz-adv-x="479" 
d="M172 1638h131v-1333h-131v1333zM172 182h131v-182h-131v182z" />
    <glyph glyph-name="quotedbl" unicode="&#x22;" horiz-adv-x="545" 
d="M104 1638h132v-301h-132v301zM322 1638h131v-301h-131v301z" />
    <glyph glyph-name="numbersign" unicode="#" horiz-adv-x="1120" 
d="M999 618h-272l-92 -499h-111l90 499h-208l-95 -499h-110l92 499h-236l19 105h233l41 215h-235l18 109l236 -3l86 484h110l-86 -481l211 -3l86 484h113l-82 -481l266 -3l-18 -108l-267 2l-38 -215h268zM420 723h211l37 215h-209z" />
    <glyph glyph-name="dollar" unicode="$" horiz-adv-x="924" 
d="M698 0h-172v-225h-131v225h-174q-59 0 -90 33q-25 25 -25 76v247h125v-213q0 -8 7 -14q10 -10 12 -10h416q4 0 14 10q6 6 6 14l-2 627q0 9 -6 18q-9 7 -21 7h-446q-54 0 -90 36q-25 28 -25 76v623q0 44 29 76q35 34 90 34h178v224h131v-224h170q59 0 90 -34
q25 -28 25 -76v-248h-125v234q0 8 -6 14q-4 4 -14 4h-416q-8 0 -12 -4q-7 -6 -7 -14v-584q0 -8 6.5 -14.5t12.5 -6.5h444q57 0 92 -39q33 -35 33 -77v-686q0 -47 -26 -76q-33 -33 -93 -33z" />
    <glyph glyph-name="percent" unicode="%" horiz-adv-x="1145" 
d="M662 1638h131l-289 -1638h-131zM389 1102v409q0 9 -6 15q-8 8 -12 8h-121q-6 0 -14 -8q-7 -6 -7 -15v-409q0 -8 7 -15l8 -4t6 -2h121q2 0 5 2t7 4q6 7 6 15zM508 1520l-2 -447q0 -47 -25 -72q-35 -38 -86 -38l-168 -2q-31 0 -52.5 6.5t-39.5 23.5q-24 28 -24 76v459
q0 48 24 76q39 38 92 38h172q55 0 90 -38q19 -21 19 -82zM932 135v410q0 8 -6 14q-8 8 -13 8h-120q-7 0 -15 -8q-6 -6 -6 -14v-410q0 -8 6 -14l8 -4t7 -2h120q3 0 6 2t7 4q6 6 6 14zM1051 553l-2 -447q0 -46 -25 -71q-36 -39 -86 -39h-168q-63 0 -92 29q-25 26 -25 75v459
q0 48 25 76q37 37 92 37h172q57 0 90 -37q19 -21 19 -82z" />
    <glyph glyph-name="ampersand" unicode="&#x26;" horiz-adv-x="983" 
d="M330 944l-84 -2q-3 0 -13 -8q-6 -6 -6 -14v-783q0 -8 6 -14q4 -1 7.5 -3.5t5.5 -2.5h416q2 0 14 6q6 6 6 14l-2 459zM897 389l-102 94v-377q0 -43 -25 -71q-36 -39 -86 -39h-477q-64 0 -90 29q-29 31 -29 75v854q0 45 28.5 76t90.5 31q-6 5 -14 14.5t-17 18.5
q-29 32 -29 75v369q0 36 29 70q31 32 90 32h299q48 0 88 -45q25 -26 25 -73l-2 -189h-117v174q0 9 -6 15q-10 10 -14 10h-240q-2 0 -12 -10q-8 -8 -8 -15v-325l397 -396v177h125v-289l190 -191z" />
    <glyph glyph-name="quotesingle" unicode="'" horiz-adv-x="332" 
d="M98 1638h131v-301h-131v301z" />
    <glyph glyph-name="parenleft" unicode="(" horiz-adv-x="510" 
d="M240 1454v-1272q0 -34 18 -55q20 -23 70 -23h88v-104h-60q-74 0 -116.5 8t-73.5 39q-33 37 -44 76.5t-11 97.5v1192q0 59 11 98.5t44 75.5q30 32 75.5 41.5t114.5 9.5h60v-104h-88q-48 0 -70 -23q-18 -21 -18 -57z" />
    <glyph glyph-name="parenright" unicode=")" horiz-adv-x="510" 
d="M281 182l-2 1272q0 36 -21 57q-22 23 -70 23h-88v104h60q69 0 115.5 -10t74.5 -41q34 -35 45 -75t11 -99v-1192q0 -58 -11 -98t-45 -76q-30 -31 -72.5 -39t-115.5 -8h-60v104h88q50 0 70 23q21 21 21 55z" />
    <glyph glyph-name="asterisk" unicode="*" horiz-adv-x="702" 
d="M106 1159l115 107h-178v118h174l-111 111l78 78l119 -113v176h117v-174l110 111l78 -74l-112 -119h161v-110h-165l116 -115l-78 -74l-110 111v-174h-117v176l-119 -113z" />
    <glyph glyph-name="plus" unicode="+" horiz-adv-x="672" 
d="M618 754h-217v-217h-131v217h-215v131h215v215h131v-215h217v-131z" />
    <glyph glyph-name="comma" unicode="," horiz-adv-x="324" 
d="M229 0l-55 -131l-65 20l49 111h-62v182h131z" />
    <glyph glyph-name="hyphen" unicode="-" horiz-adv-x="532" 
d="M51 885h455v-131h-455v131z" />
    <glyph glyph-name="period" unicode="." horiz-adv-x="330" 
d="M98 182h131v-182h-131v182z" />
    <glyph glyph-name="slash" unicode="/" horiz-adv-x="539" 
d="M365 1638h131l-289 -1638h-131z" />
    <glyph glyph-name="zero" unicode="0" horiz-adv-x="909" 
d="M682 137v1372q0 9 -6 15q-8 8 -12 8h-416q-5 0 -15 -8q-6 -6 -6 -15v-1372q0 -8 6 -14q4 -1 8.5 -3.5t6.5 -2.5h416q2 0 5 2t7 4q6 6 6 14zM801 1518v-1409q0 -48 -25 -72q-35 -39 -86 -39h-477q-64 0 -92 29q-25 26 -25 75v1422q0 49 25 75q38 39 92 39h479q55 0 90 -39
q19 -20 19 -81z" />
    <glyph glyph-name="one" unicode="1" horiz-adv-x="563" 
d="M287 1479l-164 -125l-86 94l250 190h131v-1638h-131v1479z" />
    <glyph glyph-name="two" unicode="2" horiz-adv-x="915" 
d="M231 709l-8 -588h570v-117l-705 -2v741q0 45 31 78q16 17 34.5 24t57.5 13l444 78q13 0 17 8q6 6 6 14v555q0 9 -6 15q-4 8 -13 8h-380q-5 0 -13 -8q-6 -6 -6 -15v-233h-127v248q0 48 25 76q38 38 92 38h444q55 0 90 -38q25 -25 25 -76v-604q0 -52 -25 -76
q-18 -21 -38 -27.5t-52 -11.5l-444 -78q-8 -4 -12 -8q-7 -6 -7 -14z" />
    <glyph glyph-name="three" unicode="3" horiz-adv-x="897" 
d="M678 0l-592 2v115h567q9 0 13 8q6 6 6 14v666q0 8 -6 14t-13 6h-291v105h293q9 0 13 8q4 4 4 14v557q0 9 -6 15q-4 8 -11 8h-569v106h598q52 0 90 -39q25 -26 25 -75v-537q0 -44 -25 -72q-38 -38 -88 -38q46 0 80 -35q25 -29 25 -72v-659q0 -44 -25 -72q-39 -39 -88 -39z
" />
    <glyph glyph-name="four" unicode="4" horiz-adv-x="901" 
d="M856 680l-143 2v-680h-131v680h-521v111l332 741h139l-325 -739h375v843h131v-843h143v-115z" />
    <glyph glyph-name="five" unicode="5" horiz-adv-x="907" 
d="M231 1532l9 -582q0 -8 6 -14q8 -4 12 -4h444q56 0 91 -41q24 -25 24 -76v-706q0 -52 -24 -76q-32 -35 -91 -35h-485q-57 0 -92 35q-25 26 -25 76v249l127 -2v-219q0 -8 6 -14q7 -6 13 -6h422q9 0 12 6q6 6 6 14l2 643q0 9 -6 15q-10 10 -18 10h-445q-58 0 -92 37
q-31 31 -31 78v718h705v-106h-570z" />
    <glyph glyph-name="six" unicode="6" horiz-adv-x="922" 
d="M668 815h-406q-8 0 -16 -8q-6 -6 -6 -14l-2 -652q0 -8 6 -14q8 -8 12 -8h412q6 0 14 8q6 6 6 14l2 652q0 8 -6 14q-1 1 -4.5 3t-6.5 3.5t-5 1.5zM662 1532l-402 2q-4 0 -12 -8q-6 -6 -6 -15v-559q0 -8 6 -14t12 -6h447q51 0 90 -39q24 -28 24 -76l-2 -708q0 -49 -24 -76
q-35 -35 -93 -35h-485q-58 0 -90 35q-25 24 -25 76v1413q0 51 25 75q38 41 92 41h473q55 0 90 -39q25 -26 25 -75v-248h-125v233q0 9 -6 15q-8 8 -14 8z" />
    <glyph glyph-name="seven" unicode="7" horiz-adv-x="748" 
d="M551 1534h-504v104h641l-2 -102l-330 -1536h-131z" />
    <glyph glyph-name="eight" unicode="8" horiz-adv-x="915" 
d="M696 0h-471q-50 0 -86 39q-24 27 -24 72v657q0 44 24 72q33 34 80 34q-19 0 -45.5 10t-46.5 29q-23 27 -23 72v539q0 47 25 75q36 39 90 39h479q55 0 90 -39q25 -24 25 -75v-539q0 -47 -25 -72q-36 -39 -86 -39q49 0 80 -34q25 -25 25 -72v-657q0 -48 -25 -72
q-35 -39 -86 -39zM254 930h420q4 0 12 8q6 6 6 14v555q0 9 -6 15t-12 6h-420q-8 0 -14.5 -6.5t-6.5 -14.5v-555q0 -7 7 -14q8 -8 14 -8zM254 115h420q4 0 12 8q6 6 6 14v666q0 8 -6 14q-8 8 -12 8h-420q-6 0 -14 -8q-7 -7 -7 -14v-666q0 -7 7 -14q8 -8 14 -8z" />
    <glyph glyph-name="nine" unicode="9" horiz-adv-x="922" 
d="M254 821h403q2 0 8.5 3t10.5 5q4 5 4 15v665q0 9 -6 15q-8 8 -12 8h-412q-8 0 -12 -8q-7 -6 -7 -15l-2 -665q0 -8 7 -15q2 -1 9.5 -4.5t8.5 -3.5zM248 117l411 -2q10 0 13 6q8 8 8 14v555q0 7 -6 15q-8 8 -12 8h-445q-56 0 -90 39q-25 21 -25 75v697q0 51 25 75
q36 39 90 39h485q54 0 93 -39q24 -27 24 -75v-1413q0 -49 -24 -76q-37 -37 -93 -37h-483q-57 0 -92 35q-25 28 -25 76v249l127 -2v-219q0 -8 6.5 -14t12.5 -6z" />
    <glyph glyph-name="colon" unicode=":" horiz-adv-x="336" 
d="M104 182h132v-182h-132v182zM104 817h132v-182h-132v182z" />
    <glyph glyph-name="semicolon" unicode=";" horiz-adv-x="336" 
d="M236 0l-54 -131l-65 20l49 111h-62v182h132v-182zM104 815h132v-182h-132v182z" />
    <glyph glyph-name="less" unicode="&#x3c;" horiz-adv-x="672" 
d="M170 819l403 -217v-176l-503 317v160l503 332v-168z" />
    <glyph glyph-name="equal" unicode="=" horiz-adv-x="578" 
d="M63 750h455v-132h-455v132zM63 1014l455 2v-131l-455 -2v131z" />
    <glyph glyph-name="greater" unicode="&#x3e;" horiz-adv-x="666" 
d="M102 602l406 217l-406 248v168l504 -332v-160l-504 -317v176z" />
    <glyph glyph-name="question" unicode="?" horiz-adv-x="901" 
d="M358 311l-143 2v453q0 48 33 78q16 19 35.5 26t54.5 11l303 53q8 0 16 8q7 6 7 14v555q0 9 -7 15q-8 8 -12 8h-420q-4 0 -12 -8q-6 -6 -6 -15v-233h-127v248q0 48 24 76q39 38 93 38h483q53 0 90 -38q25 -29 25 -76v-604q0 -48 -25 -76q-19 -20 -39.5 -27t-50.5 -12
l-305 -53q-3 0 -4 -1t-4 -2.5l-5 -2.5q-6 -7 -6 -15zM215 184h137v-182h-137v182z" />
    <glyph glyph-name="at" unicode="@" horiz-adv-x="1219" 
d="M428 907v2q-39 -129 -39 -237q0 -152 80 -199q22 -14 45 -14q111 0 199 291q47 155 47 247q0 106 -55 160q-29 29 -64 29q-40 0 -81.5 -40.5t-75.5 -104.5t-56 -134zM821 1174l10 90h109l-172 -717q-2 -23 -2 -64q3 -53 39 -53q38 0 90 52.5t76 117.5q80 208 80 377
q0 26 -4 76q-13 106 -51.5 194t-94 149t-126.5 96t-146 38q-136 0 -245.5 -100.5t-171.5 -267.5t-62 -357q1 -185 63.5 -347.5t169.5 -259t235 -96.5q89 2 162.5 32.5t135 96.5t110.5 168l94 -2q-82 -207 -207.5 -307t-294.5 -100q-154 3 -283.5 116.5t-204.5 303.5t-75 411
q2 168 44.5 315.5t121 262.5t183.5 180.5t223 65.5q99 -5 188 -48.5t161 -124t116.5 -191.5t54.5 -249q4 -56 4 -82q0 -78 -12 -144t-27 -108.5t-51 -136.5q-36 -96 -115 -175t-153 -79q-54 0 -97 53q-24 40 -34 68q-79 -106 -170 -106q-54 0 -105 32q-115 71 -115 293
q0 153 52 316q48 148 136.5 251t180.5 103q57 0 102 -41q47 -39 78 -102z" />
    <glyph glyph-name="A" unicode="A" horiz-adv-x="938" 
d="M532 1638l402 -1638h-129l-342 1384l-334 -1384h-129l403 1638h129z" />
    <glyph glyph-name="B" unicode="B" horiz-adv-x="909" 
d="M98 1638l596 2q54 0 92 -38q25 -28 25 -76v-535q0 -47 -25 -73q-38 -39 -86 -39q51 -4 80 -35q25 -25 25 -72v-661q0 -46 -25 -72q-38 -39 -88 -39h-594v1638zM682 956v555q0 9 -6 15t-12 6h-416q-9 0 -12 -6q-7 -6 -7 -15v-555q0 -8 7 -14q4 -8 12 -8h416q4 0 12 8
q6 6 6 14zM682 139v664q0 8 -6 14q-8 8 -12 8h-416q-8 0 -12 -8q-7 -6 -7 -14v-664q0 -8 7 -14q4 -8 12 -8h416q4 0 12 8q6 6 6 14z" />
    <glyph glyph-name="C" unicode="C" horiz-adv-x="918" 
d="M809 428l4 -319q0 -46 -25 -72q-38 -39 -88 -39h-477q-63 0 -90 29q-24 27 -24 75v1422q0 48 24 75q36 39 90 39h479q52 0 91 -39q24 -27 24 -75v-248h-127v233q0 9 -6 15q-4 8 -12 8h-416q-4 0 -12 -8q-6 -6 -6 -15v-1372q0 -8 6 -14q4 -2 7 -4t5 -2h416q6 0 12 6t6 14
v291h119z" />
    <glyph glyph-name="D" unicode="D" horiz-adv-x="915" 
d="M690 137v1372q0 9 -6 15q-8 8 -14 8h-416q-4 0 -12 -8q-6 -6 -6 -15v-1372q0 -8 6 -14q8 -8 12 -8h416q6 0 14 8q6 6 6 14zM815 1524l-2 -1413q0 -39 -31 -72q-35 -39 -86 -39h-594v1638h598q55 0 91 -39q24 -27 24 -75z" />
    <glyph glyph-name="E" unicode="E" horiz-adv-x="881" 
d="M227 825v-710h568v-117h-699v1638h699v-104h-568v-604h355v-103h-355z" />
    <glyph glyph-name="F" unicode="F" horiz-adv-x="834" 
d="M227 825v-827h-131v1638h699v-104h-568v-604h355v-103h-355z" />
    <glyph glyph-name="G" unicode="G" horiz-adv-x="907" 
d="M809 930v-821q0 -46 -25 -72q-35 -39 -86 -39h-477q-63 0 -90 29q-25 28 -25 75v1422q0 47 25 75q39 39 90 39h479q55 0 91 -39q24 -27 24 -75v-248h-125v233q0 9 -6 15q-8 8 -14 8h-416q-4 0 -12 -8q-6 -6 -6 -15v-1372q0 -8 6 -14q4 -2 7 -4t5 -2h416q2 0 14 6
q6 6 6 14v688h-203v105h322z" />
    <glyph glyph-name="H" unicode="H" horiz-adv-x="858" 
d="M625 930v708h131v-1638h-131v831h-394v-831h-131v1638h131v-708h394z" />
    <glyph glyph-name="I" unicode="I" horiz-adv-x="512" 
d="M193 1638h131v-1638h-131v1638z" />
    <glyph glyph-name="J" unicode="J" horiz-adv-x="899" 
d="M799 1638l4 -1534q0 -51 -25 -75q-26 -29 -90 -29h-483q-51 0 -86 39q-25 26 -25 72l-4 315h121v-289q0 -8 6 -14l8 -4t6 -2h422q7 0 13 6t6 14v1501h127z" />
    <glyph glyph-name="K" unicode="K" horiz-adv-x="856" 
d="M240 1638l-2 -1638h-138v1638h140zM676 0l-408 932l406 706h143l-405 -716l411 -922h-147z" />
    <glyph glyph-name="L" unicode="L" horiz-adv-x="760" 
d="M768 0l-545 -2q-63 0 -92 29q-25 28 -25 75v1536h127v-1501q0 -7 7 -14l8 -4t6 -2l514 -2v-115z" />
    <glyph glyph-name="M" unicode="M" horiz-adv-x="1104" 
d="M883 0v1186l-295 -1082h-66l-295 1082v-1186h-112v1638h94l346 -1257l346 1257h90v-1638h-108z" />
    <glyph glyph-name="N" unicode="N" horiz-adv-x="954" 
d="M848 0h-82l-543 1241v-1241h-112v1638h63l559 -1298v1298h115v-1638z" />
    <glyph glyph-name="O" unicode="O" horiz-adv-x="901" 
d="M680 137v1372q0 9 -6 15q-8 8 -12 8h-416q-5 0 -15 -8q-6 -6 -6 -15v-1372q0 -8 6 -14q4 -1 8.5 -3.5t6.5 -2.5h416q2 0 5 2t7 4q6 6 6 14zM799 1518l2 -1409q0 -48 -25 -72q-35 -39 -86 -39h-477q-64 0 -92 29q-25 26 -25 75v1422q0 49 25 75q38 39 96 39h469
q59 0 94 -39q19 -20 19 -81z" />
    <glyph glyph-name="P" unicode="P" horiz-adv-x="897" 
d="M692 950v561q0 9 -6 15q-8 8 -14 8h-416q-4 0 -12 -8q-6 -6 -6 -15v-561q0 -8 6 -14q8 -8 12 -8h416q6 0 14 8q6 6 6 14zM236 0l-132 2v1638h598q54 0 91 -38q24 -28 24 -76v-602q0 -45 -24 -72q-36 -39 -86 -39h-471v-813z" />
    <glyph glyph-name="Q" unicode="Q" horiz-adv-x="911" 
d="M846 -45l-119 65q-4 -2 -13 -5.5t-18 -6.5q-32 -8 -45 -8h-430q-63 0 -90 29q-25 28 -25 75v1422q0 47 25 76q39 38 90 38h479q54 0 91 -38q18 -21 18 -82v-1348q0 -22 -10 -49q-3 -8 -7 -14.5t-6 -10.5l111 -61zM256 117l125 -6q72 0 117 -2q20 -2 33 -3t28 -4t37 -10
l-168 101l51 86l221 -136q-6 11 -6 37q0 19 -0.5 35t-1.5 35v1259q0 9 -6 15q-8 8 -14 8h-416q-4 0 -12 -8q-6 -6 -6 -15v-1372q0 -8 6 -14q4 -2 7 -4t5 -2z" />
    <glyph glyph-name="R" unicode="R" horiz-adv-x="907" 
d="M682 952v559q0 9 -6 15q-4 8 -12 8h-416q-4 0 -12 -8q-7 -6 -7 -15v-559q0 -8 7 -14q4 -2 7 -4t5 -2h416q6 0 12 6t6 14zM227 825l2 -821h-131v1638h596q54 0 92 -38q25 -28 25 -76v-520q0 -46 -25.5 -72t-42.5 -36t-43 -13q41 -3 76 -41q25 -25 25 -72v-772h-127v823
h-447z" />
    <glyph glyph-name="S" unicode="S" 
d="M811 817l2 -706q0 -50 -25 -76q-33 -37 -90 -37h-479q-56 0 -90 37q-25 25 -25 76v241h125v-219q0 -8 6.5 -14t12.5 -6h416q8 0 14 6t6 14l-2 660q0 10 -6 16q-8 8 -14 8h-453q-54 0 -90 37q-25 26 -25 76v596q0 44 29 76q39 38 90 38h475q59 0 94 -38q25 -28 25 -76
v-248h-125v233q0 9 -6 15q-8 8 -14 8h-416q-3 0 -13 -8q-6 -6 -6 -15l2 -561q0 -8 7 -14q4 -8 12 -8h442q59 0 90 -35q31 -31 31 -76z" />
    <glyph glyph-name="T" unicode="T" horiz-adv-x="766" 
d="M766 1534h-313v-1534h-131v1534h-322v104h766v-104z" />
    <glyph glyph-name="U" unicode="U" horiz-adv-x="901" 
d="M98 1638l129 -2v-1501q0 -8 6 -14q4 -1 7.5 -3.5t5.5 -2.5h416q2 0 14 6q6 6 6 14v1501h119v-1527q0 -46 -25 -72q-35 -39 -86 -39h-477q-64 0 -90 29q-25 26 -25 75v1536z" />
    <glyph glyph-name="V" unicode="V" horiz-adv-x="827" 
d="M836 1638l-363 -1638h-94l-375 1638h102l324 -1425l297 1425h109z" />
    <glyph glyph-name="W" unicode="W" horiz-adv-x="971" 
d="M752 0h-74l-186 530l-189 -530h-72l-178 1638h113l149 -1343l131 364l91 -4l133 -360l147 1343h113z" />
    <glyph glyph-name="X" unicode="X" horiz-adv-x="887" 
d="M455 973l241 665h123l-303 -802l301 -836h-129l-233 680l-252 -680h-129l317 836l-315 802h125z" />
    <glyph glyph-name="Y" unicode="Y" horiz-adv-x="807" 
d="M451 852v-852h-115v852l-301 786h119l252 -653l241 653h119z" />
    <glyph glyph-name="Z" unicode="Z" 
d="M817 1534l-592 -1421h588v-113h-713v119l596 1415h-596v104h717v-104z" />
    <glyph glyph-name="bracketleft" unicode="[" horiz-adv-x="516" 
d="M233 102l181 -2v-102h-305l-5 1638h308v-104h-176z" />
    <glyph glyph-name="backslash" unicode="\" horiz-adv-x="557" 
d="M76 1638h131l289 -1638h-131z" />
    <glyph glyph-name="bracketright" unicode="]" horiz-adv-x="516" 
d="M104 102h179l-2 1428h-177v108h308v-1638h-308v102z" />
    <glyph glyph-name="asciicircum" unicode="^" horiz-adv-x="618" 
d="M381 1935l154 -194h-129l-87 119l-81 -119h-134l148 194h129z" />
    <glyph glyph-name="underscore" unicode="_" horiz-adv-x="1417" 
d="M8 -248v31h1460v-31h-1460z" />
    <glyph glyph-name="grave" unicode="`" horiz-adv-x="473" 
d="M260 1741l-178 194h158l145 -194h-125z" />
    <glyph glyph-name="a" unicode="a" horiz-adv-x="1102" 
d="M614 1638l402 -1638h-129l-342 1384l-334 -1384h-129l403 1638h129z" />
    <glyph glyph-name="b" unicode="b" horiz-adv-x="934" 
d="M98 1638l596 2q54 0 92 -38q25 -28 25 -76v-535q0 -47 -25 -73q-38 -39 -86 -39q51 -4 80 -35q25 -25 25 -72v-661q0 -46 -25 -72q-38 -39 -88 -39h-594v1638zM682 956v555q0 9 -6 15t-12 6h-416q-9 0 -12 -6q-7 -6 -7 -15v-555q0 -8 7 -14q4 -8 12 -8h416q4 0 12 8
q6 6 6 14zM682 139v664q0 8 -6 14q-8 8 -12 8h-416q-8 0 -12 -8q-7 -6 -7 -14v-664q0 -8 7 -14q4 -8 12 -8h416q4 0 12 8q6 6 6 14z" />
    <glyph glyph-name="c" unicode="c" horiz-adv-x="934" 
d="M809 428l4 -319q0 -46 -25 -72q-38 -39 -88 -39h-477q-63 0 -90 29q-24 27 -24 75v1422q0 48 24 75q36 39 90 39h479q52 0 91 -39q24 -27 24 -75v-248h-127v233q0 9 -6 15q-4 8 -12 8h-416q-4 0 -12 -8q-6 -6 -6 -15v-1372q0 -8 6 -14q4 -2 7 -4t5 -2h416q6 0 12 6t6 14
v291h119z" />
    <glyph glyph-name="d" unicode="d" horiz-adv-x="934" 
d="M690 137v1372q0 9 -6 15q-8 8 -14 8h-416q-4 0 -12 -8q-6 -6 -6 -15v-1372q0 -8 6 -14q8 -8 12 -8h416q6 0 14 8q6 6 6 14zM815 1524l-2 -1413q0 -39 -31 -72q-35 -39 -86 -39h-594v1638h598q55 0 91 -39q24 -27 24 -75z" />
    <glyph glyph-name="e" unicode="e" 
d="M227 825v-710h568v-117h-699v1638h699v-104h-568v-604h355v-103h-355z" />
    <glyph glyph-name="f" unicode="f" horiz-adv-x="874" 
d="M227 825v-827h-131v1638h699v-104h-568v-604h355v-103h-355z" />
    <glyph glyph-name="g" unicode="g" 
d="M809 930v-821q0 -46 -25 -72q-35 -39 -86 -39h-477q-63 0 -90 29q-25 28 -25 75v1422q0 47 25 75q39 39 90 39h479q55 0 91 -39q24 -27 24 -75v-248h-125v233q0 9 -6 15q-8 8 -14 8h-416q-4 0 -12 -8q-6 -6 -6 -15v-1372q0 -8 6 -14q4 -2 7 -4t5 -2h416q2 0 14 6
q6 6 6 14v688h-203v105h322z" />
    <glyph glyph-name="h" unicode="h" horiz-adv-x="856" 
d="M625 930v708h131v-1638h-131v831h-394v-831h-131v1638h131v-708h394z" />
    <glyph glyph-name="i" unicode="i" horiz-adv-x="541" 
d="M193 1638h131v-1638h-131v1638z" />
    <glyph glyph-name="j" unicode="j" 
d="M799 1638l4 -1534q0 -51 -25 -75q-26 -29 -90 -29h-483q-51 0 -86 39q-25 26 -25 72l-4 315h121v-289q0 -8 6 -14l8 -4t6 -2h422q7 0 13 6t6 14v1501h127z" />
    <glyph glyph-name="k" unicode="k" horiz-adv-x="934" 
d="M240 1638l-2 -1638h-138v1638h140zM676 0l-408 932l406 706h143l-405 -716l411 -922h-147z" />
    <glyph glyph-name="l" unicode="l" horiz-adv-x="864" 
d="M762 0l-545 -2q-63 0 -92 29q-25 26 -25 75v1536h127v-1501q0 -8 6 -14q4 -1 8.5 -3.5t6.5 -2.5l514 -2v-115z" />
    <glyph glyph-name="m" unicode="m" horiz-adv-x="1061" 
d="M858 -4v1186l-295 -1082h-65l-295 1082v-1186h-113v1638h94l346 -1257l347 1257h90v-1638h-109z" />
    <glyph glyph-name="n" unicode="n" horiz-adv-x="944" 
d="M848 0h-82l-543 1241v-1241h-112v1638h63l559 -1298v1298h115v-1638z" />
    <glyph glyph-name="o" unicode="o" horiz-adv-x="905" 
d="M680 137v1372q0 9 -6 15q-8 8 -12 8h-416q-5 0 -15 -8q-6 -6 -6 -15v-1372q0 -8 6 -14q4 -1 8.5 -3.5t6.5 -2.5h416q2 0 5 2t7 4q6 6 6 14zM799 1518l2 -1409q0 -48 -25 -72q-35 -39 -86 -39h-477q-64 0 -92 29q-25 26 -25 75v1422q0 49 25 75q38 39 96 39h469
q59 0 94 -39q19 -20 19 -81z" />
    <glyph glyph-name="p" unicode="p" horiz-adv-x="905" 
d="M692 950v561q0 9 -6 15q-8 8 -14 8h-416q-4 0 -12 -8q-6 -6 -6 -15v-561q0 -8 6 -14q8 -8 12 -8h416q6 0 14 8q6 6 6 14zM236 0l-132 2v1638h598q54 0 91 -38q24 -28 24 -76v-602q0 -45 -24 -72q-36 -39 -86 -39h-471v-813z" />
    <glyph glyph-name="q" unicode="q" horiz-adv-x="944" 
d="M846 -45l-119 65q-4 -2 -13 -5.5t-18 -6.5q-32 -8 -45 -8h-430q-63 0 -90 29q-25 28 -25 75v1422q0 47 25 76q39 38 90 38h479q54 0 91 -38q18 -21 18 -82v-1348q0 -22 -10 -49q-3 -8 -7 -14.5t-6 -10.5l111 -61zM256 117l125 -6q72 0 117 -2q20 -2 33 -3t28 -4t37 -10
l-168 101l51 86l221 -136q-6 11 -6 37q0 19 -0.5 35t-1.5 35v1259q0 9 -6 15q-8 8 -14 8h-416q-4 0 -12 -8q-6 -6 -6 -15v-1372q0 -8 6 -14q4 -2 7 -4t5 -2z" />
    <glyph glyph-name="r" unicode="r" horiz-adv-x="905" 
d="M682 952v559q0 9 -6 15q-4 8 -12 8h-416q-4 0 -12 -8q-7 -6 -7 -15v-559q0 -8 7 -14q4 -2 7 -4t5 -2h416q6 0 12 6t6 14zM227 825l2 -821h-131v1638h596q54 0 92 -38q25 -28 25 -76v-520q0 -46 -25.5 -72t-42.5 -36t-43 -13q41 -3 76 -41q25 -25 25 -72v-772h-127v823
h-447z" />
    <glyph glyph-name="s" unicode="s" horiz-adv-x="905" 
d="M811 817l2 -706q0 -50 -25 -76q-33 -37 -90 -37h-479q-56 0 -90 37q-25 25 -25 76v241h125v-219q0 -8 6.5 -14t12.5 -6h416q8 0 14 6t6 14l-2 660q0 10 -6 16q-8 8 -14 8h-453q-54 0 -90 37q-25 26 -25 76v596q0 44 29 76q39 38 90 38h475q59 0 94 -38q25 -28 25 -76
v-248h-125v233q0 9 -6 15q-8 8 -14 8h-416q-3 0 -13 -8q-6 -6 -6 -15l2 -561q0 -8 7 -14q4 -8 12 -8h442q59 0 90 -35q31 -31 31 -76z" />
    <glyph glyph-name="t" unicode="t" horiz-adv-x="895" 
d="M836 1534h-314v-1534h-131v1534h-321v104h766v-104z" />
    <glyph glyph-name="u" unicode="u" 
d="M98 1638l129 -2v-1501q0 -8 6 -14q4 -1 7.5 -3.5t5.5 -2.5h416q2 0 14 6q6 6 6 14v1501h119v-1527q0 -46 -25 -72q-35 -39 -86 -39h-477q-64 0 -90 29q-25 26 -25 75v1536z" />
    <glyph glyph-name="v" unicode="v" horiz-adv-x="954" 
d="M885 1638l-363 -1638h-94l-375 1638h103l323 -1425l297 1425h109z" />
    <glyph glyph-name="w" unicode="w" horiz-adv-x="1012" 
d="M760 0h-74l-186 530l-189 -530h-71l-179 1638h113l150 -1343l131 364l90 -4l133 -360l147 1343h113z" />
    <glyph glyph-name="x" unicode="x" 
d="M455 973l241 665h123l-303 -802l301 -836h-129l-233 680l-252 -680h-129l317 836l-315 802h125z" />
    <glyph glyph-name="y" unicode="y" horiz-adv-x="836" 
d="M451 852v-852h-115v852l-301 786h119l252 -653l241 653h119z" />
    <glyph glyph-name="z" unicode="z" horiz-adv-x="885" 
d="M817 1534l-592 -1421h588v-113h-713v119l596 1415h-596v104h717v-104z" />
    <glyph glyph-name="braceleft" unicode="{" horiz-adv-x="537" 
d="M264 745l4 7v-562q0 -34 21 -55q22 -24 67 -24h90v-105h-59q-71 0 -115.5 9.5t-76.5 41.5q-35 37 -47.5 78t-12.5 96v527q0 43 -31 80q-21 26 -57 39q26 12 55 32q31 27 31 70v430q0 55 12.5 97t47.5 77q31 32 76 43.5t110 11.5h63v-110h-90q-45 0 -67 -23
q-21 -20 -21 -57v-467q0 -46 -28 -84q-9 -12 -29 -27q27 -22 31 -28q26 -45 26 -97z" />
    <glyph glyph-name="bar" unicode="|" horiz-adv-x="526" 
d="M199 1741h131v-1837h-131v1837z" />
    <glyph glyph-name="braceright" unicode="}" horiz-adv-x="557" 
d="M313 842l2 -6q4 6 31 28q-17 12 -29 27q-28 38 -28 84v467q0 37 -21 57q-22 23 -67 23h-95v114l64 -4q68 0 115.5 -11.5t76.5 -43.5q35 -35 47.5 -74.5t12.5 -99.5v-430q0 -45 31 -70q30 -21 55 -33q-35 -10 -57 -39q-31 -35 -31 -79v-527q0 -59 -12.5 -98.5t-47.5 -75.5
q-30 -32 -75.5 -41.5t-116.5 -9.5h-64v104h95q44 0 67 25q21 20 21 55v561q0 52 26 97z" />
    <glyph glyph-name="asciitilde" unicode="~" horiz-adv-x="555" 
d="M223 1896l117 -65l49 61h94l-135 -163l-115 71l-45 -61h-98z" />
    <glyph glyph-name="Adieresis" unicode="&#xc4;" horiz-adv-x="934" 
d="M532 1638l402 -1638h-129l-342 1384l-334 -1384h-129l403 1638h129zM324 1886h110v-145h-110v145zM528 1886h109v-145h-109v145z" />
    <glyph glyph-name="Aring" unicode="&#xc5;" horiz-adv-x="930" 
d="M532 1638l402 -1638h-129l-342 1384l-334 -1384h-129l403 1638h129zM463 1737q-68 1 -106 43t-38 100q0 36 17 71t50.5 56t80.5 21q47 -1 78.5 -21.5t48 -53t16.5 -69.5q0 -61 -38 -104t-109 -43zM467 1964q-39 0 -61.5 -24t-22.5 -58q0 -33 21.5 -57.5t58.5 -24.5
q39 1 62.5 26t23.5 56q0 33 -21.5 57.5t-60.5 24.5z" />
    <glyph glyph-name="Ccedilla" unicode="&#xc7;" horiz-adv-x="918" 
d="M692 0l-164 -4l-129 -195h-200l204 195h-192q-29 0 -46 4.5t-38 24.5q-25 28 -25 75v1422q0 47 25 75q39 39 92 39h479q55 0 90 -39q25 -24 25 -75v-248h-125v233q0 9 -6 15q-8 8 -12 8h-416q-6 0 -14 -8q-7 -7 -7 -15v-1372q0 -7 7 -14l8 -4t6 -2h416q2 0 5 2t7 4
q6 6 6 14v291h119v-315q0 -48 -25 -72q-35 -39 -90 -39z" />
    <glyph glyph-name="Eacute" unicode="&#xc9;" horiz-adv-x="879" 
d="M231 825v-710h568v-117h-699v1638h699v-104h-568v-604h355v-103h-355zM602 1933l-180 -194h-125l147 194h158z" />
    <glyph glyph-name="Ntilde" unicode="&#xd1;" horiz-adv-x="946" 
d="M455 1896l116 -65l50 61h94l-135 -163l-115 71l-45 -61h-98zM846 0h-82l-543 1241v-1241h-112v1638h63l559 -1298v1298h115v-1638z" />
    <glyph glyph-name="Odieresis" unicode="&#xd6;" horiz-adv-x="891" 
d="M303 1886h111v-145h-111v145zM508 1886h108v-145h-108v145zM682 137v1372q0 9 -6 15q-8 8 -12 8h-416q-5 0 -15 -8q-6 -6 -6 -15v-1372q0 -8 6 -14q4 -1 8.5 -3.5t6.5 -2.5h416q2 0 5 2t7 4q6 6 6 14zM801 1518l2 -1409q0 -48 -25 -72q-35 -39 -86 -39h-477q-63 0 -92 29
q-25 26 -25 75v1422q0 49 25 75q39 39 96 39h469q59 0 94 -39q19 -20 19 -81z" />
    <glyph glyph-name="Udieresis" unicode="&#xdc;" horiz-adv-x="903" 
d="M98 1638l129 -2v-1501q0 -8 6 -14q4 -1 7.5 -3.5t5.5 -2.5h416q2 0 14 6q6 6 6 14v1501h119v-1527q0 -46 -25 -72q-35 -39 -86 -39h-477q-64 0 -90 29q-25 26 -25 75v1536zM322 1884h110v-145h-110v145zM526 1884h109v-145h-109v145z" />
    <glyph glyph-name="aacute" unicode="&#xe1;" horiz-adv-x="1042" 
d="M582 1638l401 -1638h-129l-342 1384l-334 -1384h-129l404 1638h129zM690 1935l-180 -194h-125l147 194h158z" />
    <glyph glyph-name="agrave" unicode="&#xe0;" horiz-adv-x="1081" 
d="M612 1638l402 -1638h-129l-342 1384l-334 -1384h-129l403 1638h129zM578 1741l-179 194h158l145 -194h-124z" />
    <glyph glyph-name="acircumflex" unicode="&#xe2;" horiz-adv-x="1063" 
d="M592 1638l401 -1638h-129l-342 1384l-334 -1384h-129l404 1638h129zM600 1935l154 -194h-129l-86 119l-82 -119h-133l147 194h129z" />
    <glyph glyph-name="adieresis" unicode="&#xe4;" horiz-adv-x="1081" 
d="M612 1638l402 -1638h-129l-342 1384l-334 -1384h-129l403 1638h129zM395 1886h111v-145h-111v145zM600 1886h109v-145h-109v145z" />
    <glyph glyph-name="atilde" unicode="&#xe3;" horiz-adv-x="1081" 
d="M612 1649l402 -1639h-129l-342 1385l-334 -1385h-129l403 1639h129zM514 1907l117 -66l49 62h94l-135 -164l-115 71l-45 -61h-98z" />
    <glyph glyph-name="aring" unicode="&#xe5;" horiz-adv-x="1061" 
d="M532 1638l402 -1638h-129l-342 1384l-334 -1384h-129l403 1638h129zM463 1737q-68 1 -106 43t-38 100q0 36 17 71t50.5 56t80.5 21q47 -1 78.5 -21.5t48 -53t16.5 -69.5q0 -61 -38 -104t-109 -43zM467 1964q-39 0 -61.5 -24t-22.5 -58q0 -33 21.5 -57.5t58.5 -24.5
q39 1 62.5 26t23.5 56q0 33 -21.5 57.5t-60.5 24.5z" />
    <glyph glyph-name="ccedilla" unicode="&#xe7;" 
d="M692 0l-164 -4l-129 -195h-200l204 195h-192q-29 0 -46 4.5t-38 24.5q-25 28 -25 75v1422q0 47 25 75q39 39 92 39h479q55 0 90 -39q25 -24 25 -75v-248h-125v233q0 9 -6 15q-8 8 -12 8h-416q-6 0 -14 -8q-7 -7 -7 -15v-1372q0 -7 7 -14l8 -4t6 -2h416q2 0 5 2t7 4
q6 6 6 14v291h119v-315q0 -48 -25 -72q-35 -39 -90 -39z" />
    <glyph glyph-name="eacute" unicode="&#xe9;" horiz-adv-x="836" 
d="M225 825v-710h568v-117h-699v1638h699v-104h-568v-604h355v-103h-355zM561 1933l-180 -194h-125l147 194h158z" />
    <glyph glyph-name="egrave" unicode="&#xe8;" horiz-adv-x="862" 
d="M225 825v-710h568v-117h-699v1638h699v-104h-568v-604h355v-103h-355zM475 1739l-178 194h158l145 -194h-125z" />
    <glyph glyph-name="ecircumflex" unicode="&#xea;" horiz-adv-x="868" 
d="M227 825v-710h568v-117h-699v1638h699v-104h-568v-604h355v-103h-355zM510 1933l154 -194h-129l-86 119l-82 -119h-134l148 194h129z" />
    <glyph glyph-name="edieresis" unicode="&#xeb;" horiz-adv-x="868" 
d="M227 825v-710h568v-117h-699v1638h699v-104h-568v-604h355v-103h-355zM313 1884h111v-145h-111v145zM518 1884h109v-145h-109v145z" />
    <glyph glyph-name="iacute" unicode="&#xed;" horiz-adv-x="506" 
d="M166 1638h131v-1638h-131v1638zM422 1935l-180 -194h-125l147 194h158z" />
    <glyph glyph-name="igrave" unicode="&#xec;" horiz-adv-x="508" 
d="M193 1638h131v-1638h-131v1638zM283 1741l-179 194h158l146 -194h-125z" />
    <glyph glyph-name="icircumflex" unicode="&#xee;" horiz-adv-x="512" 
d="M193 1638h131v-1638h-131v1638zM332 1935l153 -194h-129l-86 119l-82 -119h-133l148 194h129z" />
    <glyph glyph-name="idieresis" unicode="&#xef;" horiz-adv-x="512" 
d="M193 1638h131v-1638h-131v1638zM106 1886h111v-145h-111v145zM311 1886h109v-145h-109v145z" />
    <glyph glyph-name="ntilde" unicode="&#xf1;" horiz-adv-x="946" 
d="M848 0h-82l-543 1241v-1241h-112v1638h63l559 -1298v1298h115v-1638zM446 1907l117 -66l49 62h95l-136 -164l-114 71l-45 -61h-99z" />
    <glyph glyph-name="oacute" unicode="&#xf3;" horiz-adv-x="897" 
d="M680 137v1372q0 9 -6 15q-8 8 -12 8h-416q-5 0 -15 -8q-6 -6 -6 -15v-1372q0 -8 6 -14q4 -1 8.5 -3.5t6.5 -2.5h416q2 0 5 2t7 4q6 6 6 14zM799 1518l2 -1409q0 -48 -25 -72q-35 -39 -86 -39h-477q-64 0 -92 29q-25 26 -25 75v1422q0 49 25 75q38 39 96 39h469
q59 0 94 -39q19 -20 19 -81zM623 1931l-181 -194h-125l148 194h158z" />
    <glyph glyph-name="ograve" unicode="&#xf2;" horiz-adv-x="895" 
d="M680 137v1372q0 9 -6 15q-8 8 -12 8h-416q-5 0 -15 -8q-6 -6 -6 -15v-1372q0 -8 6 -14q4 -1 8.5 -3.5t6.5 -2.5h416q2 0 5 2t7 4q6 6 6 14zM799 1518l2 -1409q0 -48 -25 -72q-35 -39 -86 -39h-477q-64 0 -92 29q-25 26 -25 75v1422q0 49 25 75q38 39 96 39h469
q59 0 94 -39q19 -20 19 -81zM502 1737l-178 194h157l146 -194h-125z" />
    <glyph glyph-name="ocircumflex" unicode="&#xf4;" horiz-adv-x="901" 
d="M680 137v1372q0 9 -6 15q-8 8 -12 8h-416q-5 0 -15 -8q-6 -6 -6 -15v-1372q0 -8 6 -14q4 -1 8.5 -3.5t6.5 -2.5h416q2 0 5 2t7 4q6 6 6 14zM799 1518l2 -1409q0 -48 -25 -72q-35 -39 -86 -39h-477q-64 0 -92 29q-25 26 -25 75v1422q0 49 25 75q38 39 96 39h469
q59 0 94 -39q19 -20 19 -81zM532 1942l154 -195h-129l-86 119l-82 -119h-133l147 195h129z" />
    <glyph glyph-name="odieresis" unicode="&#xf6;" horiz-adv-x="895" 
d="M680 137v1372q0 9 -6 15q-8 8 -12 8h-416q-5 0 -15 -8q-6 -6 -6 -15v-1372q0 -8 6 -14q4 -1 8.5 -3.5t6.5 -2.5h416q2 0 5 2t7 4q6 6 6 14zM799 1518l2 -1409q0 -48 -25 -72q-35 -39 -86 -39h-477q-64 0 -92 29q-25 26 -25 75v1422q0 49 25 75q38 39 96 39h469
q59 0 94 -39q19 -20 19 -81zM307 1882h111v-145h-111v145zM512 1882h109v-145h-109v145z" />
    <glyph glyph-name="otilde" unicode="&#xf5;" horiz-adv-x="905" 
d="M680 137v1372q0 9 -6 15q-8 8 -12 8h-416q-5 0 -15 -8q-6 -6 -6 -15v-1372q0 -8 6 -14q4 -1 8.5 -3.5t6.5 -2.5h416q2 0 5 2t7 4q6 6 6 14zM799 1518l2 -1409q0 -48 -25 -72q-35 -39 -86 -39h-477q-64 0 -92 29q-25 26 -25 75v1422q0 49 25 75q38 39 96 39h469
q59 0 94 -39q19 -20 19 -81zM410 1894l116 -65l49 61h95l-135 -164l-115 72l-45 -61h-99z" />
    <glyph glyph-name="uacute" unicode="&#xfa;" horiz-adv-x="899" 
d="M98 1638l129 -2v-1501q0 -8 6 -14q4 -1 7.5 -3.5t5.5 -2.5h416q2 0 14 6q6 6 6 14v1501h119v-1527q0 -46 -25 -72q-35 -39 -86 -39h-477q-64 0 -90 29q-25 26 -25 75v1536zM614 1933l-180 -194h-125l148 194h157z" />
    <glyph glyph-name="ugrave" unicode="&#xf9;" horiz-adv-x="905" 
d="M98 1638l129 -2v-1501q0 -8 6 -14q4 -1 7.5 -3.5t5.5 -2.5h416q2 0 14 6q6 6 6 14v1501h119v-1527q0 -46 -25 -72q-35 -39 -86 -39h-477q-64 0 -90 29q-25 26 -25 75v1536zM508 1739l-178 194h157l146 -194h-125z" />
    <glyph glyph-name="ucircumflex" unicode="&#xfb;" horiz-adv-x="901" 
d="M98 1638l129 -2v-1501q0 -8 6 -14q4 -1 7.5 -3.5t5.5 -2.5h416q2 0 14 6q6 6 6 14v1501h119v-1527q0 -46 -25 -72q-35 -39 -86 -39h-477q-64 0 -90 29q-25 26 -25 75v1536zM514 1933l154 -194h-129l-86 119l-82 -119h-133l147 194h129z" />
    <glyph glyph-name="udieresis" unicode="&#xfc;" horiz-adv-x="905" 
d="M98 1638l129 -2v-1501q0 -8 6 -14q4 -1 7.5 -3.5t5.5 -2.5h416q2 0 14 6q6 6 6 14v1501h119v-1527q0 -46 -25 -72q-35 -39 -86 -39h-477q-64 0 -90 29q-25 26 -25 75v1536zM313 1884h111v-145h-111v145zM518 1884h109v-145h-109v145z" />
    <glyph glyph-name="dagger" unicode="&#x2020;" horiz-adv-x="885" 
d="M512 1143h315v-105h-315v-1038h-131v1038h-322v105h322v495h131v-495z" />
    <glyph glyph-name="degree" unicode="&#xb0;" horiz-adv-x="764" 
d="M391 1022q-101 1 -171 45t-106 114t-36 150t35 150t104.5 114t167.5 45q76 0 135 -26t99 -70t59.5 -98.5t19.5 -114.5q0 -59 -20 -114t-58 -98.5t-96 -69.5t-133 -27zM385 1548h-2q-101 -1 -158 -65t-57 -152q0 -87 58.5 -153t162.5 -66q71 1 119.5 31.5t73 79.5
t24.5 106t-25.5 107t-75.5 81t-120 31z" />
    <glyph glyph-name="cent" unicode="&#xa2;" horiz-adv-x="924" 
d="M702 0l-172 -4v-223h-131v223h-172q-63 0 -90 29q-24 24 -24 75v1422q0 51 24 75q36 39 90 39h172v222h131v-222h177q53 0 92 -39q24 -27 24 -75v-248h-127v233q0 9 -6 15q-8 8 -12 8h-416q-8 0 -12 -8q-6 -6 -6 -15v-1372q0 -8 6 -14t12 -6h416q2 0 5 2t7 4q6 6 6 14
v291h119v-315q0 -45 -24 -72q-39 -39 -89 -39z" />
    <glyph glyph-name="sterling" unicode="&#xa3;" horiz-adv-x="930" 
d="M481 582v-115l-282 -354l499 2q2 1 8 2.5t9 3.5q6 6 6 14v289h119v-315q0 -46 -25 -72q-35 -39 -86 -39h-543q-63 0 -90 29q-14 15 -19 39t-5 67l282 369v80h-196v114h196v119h-196v115h196v708h127v-708h191v-115h-191v-119h191v-114h-191z" />
    <glyph glyph-name="section" unicode="&#xa7;" horiz-adv-x="872" 
d="M723 1333l-92 -10q0 161 -94 215q-42 23 -97 23q-66 0 -118.5 -35.5t-65.5 -100.5q-4 -28 -4 -41q0 -115 119 -194l239 -168q94 -66 143.5 -132.5t49.5 -162.5q-1 -56 -17 -100t-46 -82t-72 -70l-47 -37q48 -42 70.5 -92t25.5 -121q0 -125 -81 -203t-204 -81
q-90 0 -158 46.5t-105.5 127.5t-37.5 178h98q0 -70 12.5 -110t41.5 -72q57 -62 151 -62q53 0 95.5 24.5t60.5 71.5q14 38 14 78q-2 57 -25 106t-65 79l-336 254q-123 94 -123 249q0 158 131 250l41 29q-27 27 -45.5 60t-26.5 68.5t-8 84.5q3 118 86 195t195 77
q86 0 154 -43.5t104.5 -121t36.5 -177.5zM285 1118l-35 -24q-99 -62 -103 -172q0 -111 97 -181l323 -243l39 28q51 38 78 80.5t27 98.5q-3 104 -86 165z" />
    <glyph glyph-name="bullet" unicode="&#x2022;" horiz-adv-x="684" 
d="M348 573q-77 0 -135 34.5t-87.5 91t-29.5 122.5q0 62 27.5 118.5t82 91.5t134.5 36q77 0 135 -34.5t87.5 -91t29.5 -122.5q0 -99 -64 -172t-180 -74z" />
    <glyph glyph-name="paragraph" unicode="&#xb6;" horiz-adv-x="907" 
d="M500 1581l4 -1745l-109 2v996q-85 2 -156 62t-113.5 163t-43.5 223q0 122 41.5 228t115 167.5t162.5 61.5l406 2v-1903h-107v1743h-200z" />
    <glyph glyph-name="germandbls" unicode="&#xdf;" horiz-adv-x="924" 
d="M231 0l-135 6v1639h598q54 0 90 -39q25 -25 25 -76v-535q0 -49 -25 -73q-35 -39 -86 -39q51 -4 80 -35q25 -23 25 -72v-661q0 -20 -13.5 -49t-29.5 -43q-21 -21 -92 -21h-332v117h332q6 0 12 6t6 14v664q0 8 -6 14q-8 8 -12 8h-332v107h332q4 0 12 8q6 6 6 14v555
q0 9 -6 15t-12 6h-416q-8 0 -14.5 -6t-6.5 -15v-1509z" />
    <glyph glyph-name="registered" unicode="&#xae;" horiz-adv-x="1280" 
d="M641 0q-136 0 -244.5 67.5t-182 184.5t-110 264t-36.5 303t37 303t110 263t180.5 183.5t245.5 67.5q182 0 312.5 -115.5t195.5 -303t65 -398.5q0 -156 -36 -302t-108.5 -263t-181 -185.5t-247.5 -68.5zM641 1548q-122 0 -218.5 -59.5t-162 -163.5t-98.5 -236t-33 -270
t33.5 -270.5t98.5 -236t161.5 -164t218.5 -60.5q123 0 221 61t162 165t96.5 232.5t32.5 272.5t-32 272t-96.5 232t-162.5 164.5t-221 60.5zM672 1217l-195 2l2 -373h193q176 0 176 186q-3 105 -51 145t-125 40zM764 739l4 -4q-35 25 -104 25h-185v-447h-67v983h252
q108 0 176 -52.5t75 -201.5q0 -173 -112 -245q27 -22 40.5 -35.5t24.5 -44.5q23 -62 23 -148q0 -26 -0.5 -43.5t-1.5 -38.5q0 -76 14 -133q5 -13 9.5 -23t5.5 -16h-70q-6 0 -8 2q-17 51 -18 166.5t-9 170t-49 85.5z" />
    <glyph glyph-name="copyright" unicode="&#xa9;" horiz-adv-x="1276" 
d="M909 1018h-65l-4 31q-10 62 -40.5 107t-71.5 67t-87 22q-121 -4 -178 -127t-57 -303q0 -183 45.5 -295.5t173.5 -134.5q86 0 149 77.5t78 190.5h70q-20 -153 -101 -250.5t-200 -97.5q-101 10 -165 81t-91 181t-29 244q0 134 34.5 254t103.5 194t165 74q64 -2 121.5 -34
t96 -93.5t48.5 -150.5zM637 0q-182 0 -312 115.5t-196 303t-66 400.5q0 212 66 399.5t196.5 302.5t311.5 115q182 0 312.5 -115.5t195.5 -303t65 -398.5q0 -156 -36 -302t-108.5 -263t-181 -185.5t-247.5 -68.5zM637 1548q-122 0 -218.5 -59.5t-162 -163.5t-98.5 -236
t-33 -270t33.5 -270.5t98.5 -236t161.5 -164t218.5 -60.5q123 0 221 61t162 165t96.5 232.5t32.5 272.5t-32 272t-96.5 232t-162.5 164.5t-221 60.5z" />
    <glyph glyph-name="trademark" unicode="&#x2122;" horiz-adv-x="1090" 
d="M-4 1638h412v-69h-179v-750h-55v752h-178v67zM690 825l-180 725v-727h-57v815h86l180 -716l184 714h82v-813h-55v725l-189 -723h-51z" />
    <glyph glyph-name="acute" unicode="&#xb4;" horiz-adv-x="461" 
d="M385 1935l-180 -194h-125l147 194h158z" />
    <glyph glyph-name="dieresis" unicode="&#xa8;" horiz-adv-x="516" 
d="M109 1886h110v-145h-110v145zM313 1886h109v-145h-109v145z" />
    <glyph glyph-name="notequal" unicode="&#x2260;" horiz-adv-x="983" 
d="M498 975l-420 -2v135h475l147 375l78 -68l-119 -307h261v-135h-310l-129 -314h439v-131h-488l-143 -364l-78 67l117 299l-250 -2v134h301z" />
    <glyph glyph-name="AE" unicode="&#xc6;" horiz-adv-x="1657" 
d="M874 1638h699v-104h-567v-604h354v-96h-354v-717h567v-117h-703v1384l-741 -1384h-127z" />
    <glyph glyph-name="Oslash" unicode="&#xd8;" horiz-adv-x="901" 
d="M371 0l-41 -227h-131l39 225h-21q-63 0 -92 29q-25 26 -25 75v1422q0 49 25 75q39 39 92 39h322l43 226h131l-43 -226h28q55 0 90 -39q19 -20 19 -81v-1407q0 -48 -25 -72q-35 -39 -86 -39h-325zM653 1530l-260 -1415h279q2 0 5 2t7 4q6 6 6 14v1372q0 9 -6 15
q-8 8 -31 8zM262 113l260 1415h-268q-6 0 -14 -8q-7 -7 -7 -15v-1372q0 -7 7 -14q12 -6 22 -6z" />
    <glyph glyph-name="infinity" unicode="&#x221e;" horiz-adv-x="1307" 
d="M313 578h2q55 0 94.5 21.5t77.5 72.5l105 139l-113 121q-46 51 -81.5 75t-84.5 27q-70 0 -116 -60.5t-52 -154.5q0 -102 47.5 -171t120.5 -70zM647 883l90 123q123 159 246 159q50 -4 94.5 -30.5t78 -70.5t54 -105t21.5 -130q0 -161 -72.5 -262.5t-169.5 -101.5
q-64 2 -136.5 43.5t-131.5 120.5l-76 102l-76 -102q-60 -78 -132.5 -121t-135.5 -45q-97 0 -169.5 101.5t-72.5 262.5q3 140 75 233.5t173 102.5q123 0 246 -159zM1143 821q-3 59 -24.5 109t-59.5 78t-84 28q-50 -3 -85 -27t-81 -75l-113 -121l105 -139q40 -51 79.5 -72.5
t94.5 -21.5q49 1 87 32t59.5 86t21.5 123z" />
    <glyph glyph-name="plusminus" unicode="&#xb1;" horiz-adv-x="803" 
d="M360 1044v402h74v-402h281v-112h-283v-400h-72v400h-280v112h280zM70 258v86h639v-86h-639z" />
    <glyph glyph-name="lessequal" unicode="&#x2264;" horiz-adv-x="987" 
d="M111 1061l792 516v-154l-659 -422l659 -444v-147l-792 530v121zM903 246v-127h-790v127h790z" />
    <glyph glyph-name="greaterequal" unicode="&#x2265;" horiz-adv-x="987" 
d="M102 1573l791 -514v-121l-791 -530v147l660 444l-660 422v152zM102 115v127h791v-127h-791z" />
    <glyph glyph-name="yen" unicode="&#xa5;" horiz-adv-x="807" 
d="M453 582l-4 -582h-119v582h-193v114h193v119h-193v115h168l-270 708h119l245 -653l250 653h123l-287 -708h170v-115h-202v-119h202v-114h-202z" />
    <glyph glyph-name="mu" unicode="&#xb5;" horiz-adv-x="954" 
d="M115 1192l137 2v-821q0 -102 43 -178t111 -76q40 1 90.5 38t84 95t33.5 121v823h138v-928q0 -74 26.5 -134t73.5 -60q52 13 74 102l12 64h31l-13 -74q-13 -90 -75.5 -148.5t-126.5 -58.5q-53 11 -98 79.5t-48 156.5l-43 -62q-50 -71 -109.5 -119.5t-103.5 -48.5
q-42 0 -98.5 37t-89.5 102v-86q0 -47 6.5 -86.5t20.5 -93t22.5 -100t9.5 -109.5q0 -40 -10.5 -75.5t-29.5 -56.5t-44 -21q-35 1 -56.5 43t-23.5 96q0 61 7.5 102t24 106t20.5 109q4 54 4 68v1192z" />
    <glyph glyph-name="partialdiff" unicode="&#x2202;" horiz-adv-x="856" 
d="M223 1524l-28 -17l-62 107l68 28q75 33 151 33q97 -1 175 -69t128 -176.5t80.5 -252t38.5 -292.5q2 -27 2 -78q0 -203 -50.5 -400t-145.5 -322.5t-218 -125.5q-139 20 -215 140.5t-84 308.5q0 135 42.5 249t115.5 182t160 68q59 -1 104 -27t99 -81l49 -49l12 114
q8 60 8 142q0 141 -30.5 274t-92 215.5t-151.5 83.5q-30 0 -51 -7.5t-55.5 -24.5t-49.5 -23zM598 487l27 175l-43 59q-45 61 -107 82q-18 6 -35 6q-79 0 -138 -92t-85 -225q-14 -70 -14 -152q0 -115 34.5 -202t102.5 -118q23 -10 43 -10q85 0 138 144t77 333z" />
    <glyph glyph-name="summation" unicode="&#x2211;" horiz-adv-x="1161" 
d="M1010 1634v-362h-35q0 126 -60 198q-30 42 -62.5 53t-90.5 11h-467l448 -774l-481 -774h643q32 0 56.5 13t52.5 42q35 40 52.5 87t20.5 112h37q-32 -148 -47 -265q-9 -66 -13 -130t-5 -111l-115 30h-913l567 891l-557 994l102 -15h867z" />
    <glyph glyph-name="product" unicode="&#x220f;" horiz-adv-x="1327" 
d="M33 1634l1251 -4v-51l-37 -2q-42 -6 -73 -47q-31 -33 -42.5 -81t-11.5 -118v-1343q0 -54 7 -88t28 -64q21 -26 41 -33.5t51 -9.5l37 -4v-37h-498v43l41 4q34 2 54.5 8t38.5 31q22 34 22 103v53v1505h-584v-1491q0 -61 7 -102t34 -72q21 -21 40.5 -26t54.5 -5h30v-47h-497
v51h39q32 0 51.5 5t38.5 26q21 29 26.5 68t5.5 106v1356q0 56 -12.5 94.5t-38.5 69.5q-35 46 -78 51l-26 4v47z" />
    <glyph glyph-name="pi" unicode="&#x3c0;" horiz-adv-x="1018" 
d="M88 842v2l-29 16l13 35q7 21 23.5 73.5t31.5 87t32.5 58.5t45.5 45q52 39 112 39h619v-201h-225l-23 -583q0 -81 30.5 -144t80.5 -63q41 1 68 39.5t36 99.5l6 41h35l-4 -53q-8 -90 -35.5 -165t-75 -121t-108.5 -46q-80 8 -115 112.5t-35 254.5q0 34 4 104l39 522h-200
l-70 -774q-9 -92 -38.5 -163.5t-74.5 -71.5q-14 0 -22 4q-29 12 -47.5 30.5t-24.5 53.5q0 60 14.5 92.5t46 81t42.5 88.5q5 20 12 42.5t11.5 47t4.5 31.5l39 526h-55q-49 0 -78 -12q-27 -15 -53 -58.5t-33 -70.5z" />
    <glyph glyph-name="integral" unicode="&#x222b;" horiz-adv-x="479" 
d="M305 1722q-4 4 -12 4q-25 0 -25 -106q0 -27 3.5 -90.5t8.5 -139.5t8 -122.5t3 -104.5v-706q0 -123 -4.5 -226t-21 -214.5t-51 -186t-87.5 -74.5q-15 0 -33 6q-22 10 -41.5 40.5t-19.5 66.5q3 34 19 58.5t40 25.5q12 0 19.5 -6.5t14.5 -18.5t14 -23t16 -16q47 0 47 191
q0 46 -0.5 70t-1.5 61t-2.5 76t-1.5 69v981q0 135 11.5 250.5t43.5 196.5t92 82q35 0 62.5 -29.5t27.5 -75.5q-3 -36 -22 -60t-45 -24q-15 0 -34 20t-28 25z" />
    <glyph glyph-name="ordfeminine" unicode="&#xaa;" horiz-adv-x="657" 
d="M352 1638l197 -739h-60l-167 627l-166 -627h-58l195 739h59zM96 838h455v-58l-455 -2v60z" />
    <glyph glyph-name="ordmasculine" unicode="&#xba;" horiz-adv-x="514" 
d="M360 963v618q0 6 -4 10t-8 4h-186q-4 0 -8 -4t-4 -10v-618q0 -5 4 -9t8 -4h186q4 0 8 4t4 9zM414 1585l-2 -635q0 -20 -13 -32q-18 -19 -39 -19h-215q-26 0 -41 14q-12 13 -12 33v639q0 23 12 35q17 16 43 16h218q24 0 41 -16q8 -8 8 -35zM96 842h316v-58l-316 -2v60z
" />
    <glyph glyph-name="Omega" unicode="&#x2126;" horiz-adv-x="1270" 
d="M1153 866l4 2q-3 -146 -45.5 -272t-119.5 -209t-177 -108v-70h258q58 0 86 57q15 34 15 80h28v-348h-469l23 332q110 72 164.5 210t54.5 326q-2 234 -71.5 364.5t-262.5 133.5q-123 0 -198 -65.5t-107.5 -176.5t-34.5 -258q0 -187 54.5 -325.5t166.5 -210.5l23 -332h-469
v348h28q0 -42 17 -80q25 -57 82 -57h258v69q-101 25 -177 108.5t-118.5 209t-46.5 272.5q0 180 68 307t186 192t266 65q117 0 211.5 -36.5t162.5 -108t104 -177t36 -242.5z" />
    <glyph glyph-name="ae" unicode="&#xe6;" horiz-adv-x="1649" 
d="M874 1638h699v-104h-567v-604h354v-96h-354v-717h567v-117h-703v1384l-741 -1384h-127z" />
    <glyph glyph-name="oslash" unicode="&#xf8;" horiz-adv-x="909" 
d="M371 0l-41 -227h-131l39 225h-21q-63 0 -92 29q-25 26 -25 75v1422q0 49 25 75q39 39 92 39h322l43 226h131l-43 -226h28q55 0 90 -39q19 -20 19 -81v-1407q0 -48 -25 -72q-35 -39 -86 -39h-325zM653 1530l-260 -1415h279q2 0 5 2t7 4q6 6 6 14v1372q0 9 -6 15
q-8 8 -31 8zM262 113l260 1415h-268q-6 0 -14 -8q-7 -7 -7 -15v-1372q0 -7 7 -14q12 -6 22 -6z" />
    <glyph glyph-name="questiondown" unicode="&#xbf;" horiz-adv-x="889" 
d="M537 1325l143 4v-455q0 -46 -33 -77q-17 -18 -37.5 -25t-52.5 -12l-303 -53q-3 0 -7.5 -3.5t-8.5 -5.5q-7 -6 -7 -14v-557q0 -8 7 -14q3 -2 6 -4.5t6 -2.5h420q3 0 6 2.5t6 4.5q6 6 6 14v233h127v-247q0 -52 -24 -76q-34 -37 -93 -37h-483q-58 0 -90 37q-25 24 -25 76
v604q0 48 25 76q20 18 36 24t54 12l305 54q6 0 12 6q7 6 7 14zM680 1456h-137v184h137v-184z" />
    <glyph glyph-name="exclamdown" unicode="&#xa1;" horiz-adv-x="479" 
d="M303 0h-131v1331h131v-1331zM303 1454h-131v184h131v-184z" />
    <glyph glyph-name="logicalnot" unicode="&#xac;" horiz-adv-x="1315" 
d="M1118 571h-1052v127h1146v-698h-94v571z" />
    <glyph glyph-name="radical" unicode="&#x221a;" horiz-adv-x="788" 
d="M195 913l-140 -100l-20 70l211 143l291 -815l188 1626l51 -10l-219 -1933z" />
    <glyph glyph-name="florin" unicode="&#x192;" horiz-adv-x="750" 
d="M586 1708l-8 -2q-10 6 -15 6q-25 0 -34.5 -62.5t-21.5 -212t-22 -204.5l-8 -47h158l-8 -92h-168l-94 -684q-22 -148 -55.5 -303t-91 -277.5t-130.5 -122.5q-9 0 -35 8q-17 9 -31 33t-14 49q0 9 4 25q22 81 76 84q16 0 21 -7.5t14.5 -30t17.5 -26.5q24 0 43 43.5t33.5 119
t24.5 156.5t18 148l111 789h-172l4 94h192l11 61q33 242 92 421t145 179q30 0 52 -29.5t22 -76.5q-9 -40 -29.5 -62t-50.5 -22q-15 0 -29 19t-22 26z" />
    <glyph glyph-name="approxequal" unicode="&#x2248;" horiz-adv-x="1094" 
d="M174 924l-31 -47l-73 69l24 37q47 70 93 105.5t110 50.5q27 6 51 6q41 0 135 -37l127 -53q25 -12 50 -24.5t50.5 -18.5t53.5 -6q50 5 85.5 25t68.5 69l30 45l70 -62l-35 -57q-43 -72 -94 -105t-121 -38q-33 0 -58.5 8t-61 25.5t-56.5 25.5l-143 55q-36 16 -60.5 25.5
t-50.5 9.5q-18 0 -39 -6q-70 -18 -125 -102zM172 526l-31 -51l-73 70l24 37q46 70 92.5 106t110.5 51q27 6 51 6q47 0 135 -38l127 -54q17 -6 38.5 -17t39.5 -17.5t35.5 -10.5t40.5 -4q52 6 86.5 26.5t66.5 67.5l31 47l70 -61l-35 -55q-45 -75 -93 -106.5t-122 -37.5
q-31 0 -57.5 7.5t-56 22.5t-62.5 30l-144 55q-4 1 -32.5 13.5t-45.5 17t-34 4.5q-19 0 -37 -6q-37 -11 -65.5 -34.5t-59.5 -68.5z" />
    <glyph glyph-name="Delta" unicode="&#x2206;" horiz-adv-x="1116" 
d="M43 -2l555 1669l487 -1669h-1042zM879 106l-347 1166l-380 -1166h727z" />
    <glyph glyph-name="guillemotleft" unicode="&#xab;" horiz-adv-x="963" 
d="M109 938l333 354v-233l-237 -242l233 -233v-246l-329 367v233zM528 938l334 354v-233l-237 -242l233 -233v-246l-330 367v233z" />
    <glyph glyph-name="guillemotright" unicode="&#xbb;" horiz-adv-x="961" 
d="M522 1292l332 -354v-233l-330 -367v246l234 233l-236 242v233zM100 1292l336 -354v-233l-330 -367v246l232 233l-238 242v233z" />
    <glyph glyph-name="ellipsis" unicode="&#x2026;" horiz-adv-x="840" 
d="M57 182h131v-182h-131v182zM348 182h131v-182h-131v182zM639 182h131v-182h-131v182z" />
    <glyph glyph-name="Agrave" unicode="&#xc0;" horiz-adv-x="1053" 
d="M592 1638l401 -1638h-129l-342 1384l-334 -1384h-129l404 1638h129zM580 1741l-179 194h158l146 -194h-125z" />
    <glyph glyph-name="Atilde" unicode="&#xc3;" horiz-adv-x="1071" 
d="M592 1638l401 -1638h-129l-342 1384l-334 -1384h-129l404 1638h129zM498 1907l116 -66l50 62h94l-135 -164l-115 71l-45 -61h-98z" />
    <glyph glyph-name="Otilde" unicode="&#xd5;" horiz-adv-x="897" 
d="M696 137v1372q0 9 -6 15q-8 8 -12 8h-416q-6 0 -14 -8q-6 -6 -6 -15v-1372q0 -8 6 -14l8 -4t6 -2h416q2 0 5 2t7 4q6 6 6 14zM815 1518l2 -1409q0 -48 -24 -72q-36 -39 -86 -39h-478q-63 0 -92 29q-24 27 -24 75v1422q0 48 24 75q39 39 96 39h469q59 0 95 -39
q18 -20 18 -81zM422 1905l117 -66l49 62h94l-135 -164l-115 71l-45 -61h-98z" />
    <glyph glyph-name="OE" unicode="&#x152;" horiz-adv-x="1417" 
d="M1350 0l-1131 -2q-63 0 -92 29q-25 28 -25 75v1422q0 47 25 75q39 39 92 39h1131v-104h-568v-604h355v-96h-355v-717h568v-117zM254 115l397 -2v1417h-397q-6 0 -14 -8q-7 -7 -7 -15v-1372q0 -7 7 -14l8 -4t6 -2z" />
    <glyph glyph-name="oe" unicode="&#x153;" horiz-adv-x="1446" 
d="M1350 0l-1131 -2q-63 0 -92 29q-25 28 -25 75v1422q0 47 25 75q39 39 92 39h1131v-104h-568v-604h355v-96h-355v-717h568v-117zM254 115l397 -2v1417h-397q-6 0 -14 -8q-7 -7 -7 -15v-1372q0 -7 7 -14l8 -4t6 -2z" />
    <glyph glyph-name="emdash" unicode="&#x2013;" horiz-adv-x="883" 
d="M72 885h759v-131h-759v131z" />
    <glyph glyph-name="endash" unicode="&#x2014;" horiz-adv-x="1343" 
d="M72 885h1212v-131h-1212v131z" />
    <glyph glyph-name="quotedblleft" unicode="&#x201c;" horiz-adv-x="580" 
d="M346 1530l55 131l66 -21l-49 -110h59v-182h-131v182zM102 1530l54 131l65 -21l-49 -110h61v-182h-131v182z" />
    <glyph glyph-name="quotedblright" unicode="&#x201d;" horiz-adv-x="573" 
d="M227 1456l-55 -131l-66 21l50 110h-60v182h131v-182zM471 1456l-53 -131l-66 21l49 110h-61v182h131v-182z" />
    <glyph glyph-name="quoteleft" unicode="&#x2018;" horiz-adv-x="346" 
d="M106 1530l54 131l65 -21l-49 -110h62v-182h-132v182z" />
    <glyph glyph-name="quoteright" unicode="&#x2019;" horiz-adv-x="332" 
d="M229 1456l-55 -131l-65 21l49 110h-60v182h131v-182z" />
    <glyph glyph-name="divide" unicode="&#xf7;" horiz-adv-x="1104" 
d="M547 1327v2q44 0 74 -44.5t30 -104.5q0 -64 -31.5 -108t-74.5 -44q-28 1 -51.5 22t-36.5 56.5t-13 73.5q2 61 31.5 104t71.5 43zM547 606q28 0 51 -20t37 -54t14 -75q0 -60 -31 -105t-75 -45q-41 1 -71 46.5t-30 107.5q1 59 31 102t74 43zM72 743v152h968v-152h-968z" />
    <glyph glyph-name="lozenge" unicode="&#x25ca;" horiz-adv-x="815" 
d="M63 840l304 794h98l297 -807l-297 -823h-98zM672 821l-258 686l-258 -680l260 -729z" />
    <glyph glyph-name="ydieresis" unicode="&#xff;" horiz-adv-x="805" 
d="M262 1886h111v-145h-111v145zM467 1886h108v-145h-108v145zM453 852v-852h-115v852l-301 786h119l252 -653l241 653h119z" />
    <glyph glyph-name="Ydieresis" unicode="&#x178;" horiz-adv-x="815" 
d="M451 852v-852h-115v852l-301 786h119l252 -653l241 653h119zM246 1886h110v-145h-110v145zM451 1886h108v-145h-108v145z" />
    <glyph glyph-name="Acircumflex" unicode="&#xc2;" horiz-adv-x="1053" 
d="M602 1638l402 -1638h-130l-342 1384l-333 -1384h-129l403 1638h129zM606 1935l154 -194h-129l-86 119l-82 -119h-133l147 194h129z" />
    <glyph glyph-name="Ecircumflex" unicode="&#xca;" horiz-adv-x="885" 
d="M227 825v-710h568v-117h-699v1638h699v-104h-568v-604h355v-103h-355zM500 1933l153 -194h-129l-86 119l-82 -119h-133l148 194h129z" />
    <glyph glyph-name="Aacute" unicode="&#xc1;" horiz-adv-x="1102" 
d="M612 1638l402 -1638h-129l-342 1384l-334 -1384h-129l403 1638h129zM719 1935l-180 -194h-125l147 194h158z" />
    <glyph glyph-name="Edieresis" unicode="&#xcb;" horiz-adv-x="895" 
d="M227 825v-710h568v-117h-699v1638h699v-104h-568v-604h355v-103h-355zM289 1884h110v-145h-110v145zM494 1884h108v-145h-108v145z" />
    <glyph glyph-name="Egrave" unicode="&#xc8;" horiz-adv-x="885" 
d="M227 825v-710h568v-117h-699v1638h699v-104h-568v-604h355v-103h-355zM487 1739l-178 194h158l145 -194h-125z" />
    <glyph glyph-name="Iacute" unicode="&#xcd;" horiz-adv-x="510" 
d="M199 1638h131v-1638h-131v1638zM451 1935l-181 -194h-125l148 194h158z" />
    <glyph glyph-name="Icircumflex" unicode="&#xce;" horiz-adv-x="512" 
d="M203 1638h131v-1638h-131v1638zM342 1935l154 -194h-129l-86 119l-82 -119h-133l147 194h129z" />
    <glyph glyph-name="Idieresis" unicode="&#xcf;" horiz-adv-x="510" 
d="M197 1638h131v-1638h-131v1638zM115 1886h110v-145h-110v145zM319 1886h109v-145h-109v145z" />
    <glyph glyph-name="Igrave" unicode="&#xcc;" horiz-adv-x="520" 
d="M199 1638h131v-1638h-131v1638zM317 1741l-178 194h158l145 -194h-125z" />
    <glyph glyph-name="Oacute" unicode="&#xd3;" horiz-adv-x="895" 
d="M680 137v1372q0 9 -6 15q-8 8 -12 8h-416q-5 0 -15 -8q-6 -6 -6 -15v-1372q0 -8 6 -14q4 -1 8.5 -3.5t6.5 -2.5h416q2 0 5 2t7 4q6 6 6 14zM799 1518l2 -1409q0 -48 -25 -72q-35 -39 -86 -39h-477q-64 0 -92 29q-25 26 -25 75v1422q0 49 25 75q38 39 96 39h469
q59 0 94 -39q19 -20 19 -81zM614 1931l-180 -194h-125l148 194h157z" />
    <glyph glyph-name="Ocircumflex" unicode="&#xd4;" horiz-adv-x="895" 
d="M680 137v1372q0 9 -6 15q-8 8 -12 8h-416q-5 0 -15 -8q-6 -6 -6 -15v-1372q0 -8 6 -14q4 -1 8.5 -3.5t6.5 -2.5h416q2 0 5 2t7 4q6 6 6 14zM799 1518l2 -1409q0 -48 -25 -72q-35 -39 -86 -39h-477q-64 0 -92 29q-25 26 -25 75v1422q0 49 25 75q38 39 96 39h469
q59 0 94 -39q19 -20 19 -81zM520 1931l154 -194h-129l-86 118l-82 -118h-133l147 194h129z" />
    <glyph glyph-name="Ograve" unicode="&#xd2;" horiz-adv-x="895" 
d="M680 137v1372q0 9 -6 15q-8 8 -12 8h-416q-5 0 -15 -8q-6 -6 -6 -15v-1372q0 -8 6 -14q4 -1 8.5 -3.5t6.5 -2.5h416q2 0 5 2t7 4q6 6 6 14zM799 1518l2 -1409q0 -48 -25 -72q-35 -39 -86 -39h-477q-64 0 -92 29q-25 26 -25 75v1422q0 49 25 75q38 39 96 39h469
q59 0 94 -39q19 -20 19 -81zM500 1737l-178 194h157l146 -194h-125z" />
    <glyph glyph-name="Uacute" unicode="&#xda;" horiz-adv-x="895" 
d="M98 1638l129 -2v-1501q0 -8 6 -14q4 -1 7.5 -3.5t5.5 -2.5h416q2 0 14 6q6 6 6 14v1501h119v-1527q0 -46 -25 -72q-35 -39 -86 -39h-477q-64 0 -90 29q-25 26 -25 75v1536zM623 1933l-181 -194h-125l148 194h158z" />
    <glyph glyph-name="Ucircumflex" unicode="&#xdb;" horiz-adv-x="905" 
d="M98 1638l129 -2v-1501q0 -8 6 -14q4 -1 7.5 -3.5t5.5 -2.5h416q2 0 14 6q6 6 6 14v1501h119v-1527q0 -46 -25 -72q-35 -39 -86 -39h-477q-64 0 -90 29q-25 26 -25 75v1536zM518 1933l154 -194h-129l-86 119l-82 -119h-133l147 194h129z" />
    <glyph glyph-name="Ugrave" unicode="&#xd9;" 
d="M109 1638l129 -2v-1501q0 -8 6 -14q4 -2 7 -4t5 -2h416q2 0 14 6q6 6 6 14v1501h119v-1527q0 -46 -25 -72q-35 -39 -86 -39h-477q-63 0 -90 29q-24 27 -24 75v1536zM487 1739l-178 194h158l145 -194h-125z" />
    <glyph glyph-name="nonbreakingspace" unicode="&#xa0;" horiz-adv-x="635" 
 />
    </font>
</defs>
</svg>
